<?xml version="1.0" encoding="iso-8859-1"?>
<!-- Uploaded to: SVG Repo, www.svgrepo.com, Generator: SVG Repo Mixer Tools -->
<svg version="1.1" id="Layer_1" xmlns="http://www.w3.org/2000/svg" xmlns:xlink="http://www.w3.org/1999/xlink" 
	 viewBox="0 0 502 502" xml:space="preserve">
<g>
	<rect x="72.74" y="215.149" style="fill:#FF2E3D;" width="356.521" height="276.851"/>
	<rect x="26.93" y="109.587" style="fill:#FF2E3D;" width="448.141" height="105.562"/>
	<g>
		<path d="M475.07,99.587H345.372c9.453-10.579,15.214-24.523,15.214-39.793C360.587,26.823,333.764,0,300.793,0
			C280.038,0,261.725,10.635,251,26.737C240.275,10.635,221.962,0,201.207,0c-32.971,0-59.794,26.823-59.794,59.793
			c0,15.27,5.761,29.215,15.214,39.793H26.93c-5.522,0-10,4.477-10,10v105.562c0,5.523,4.478,10,10,10h35.81V492
			c0,5.523,4.478,10,10,10H429.26c5.522,0,10-4.477,10-10V225.149h35.81c5.522,0,10-4.477,10-10V109.587
			C485.07,104.064,480.592,99.587,475.07,99.587z M300.793,20c21.942,0,39.794,17.851,39.794,39.793s-17.852,39.793-39.794,39.793
			H261V59.793C261,37.851,278.851,20,300.793,20z M161.413,59.793c0-21.942,17.852-39.793,39.794-39.793S241,37.851,241,59.793
			v39.793h-39.793C179.265,99.587,161.413,81.736,161.413,59.793z M36.93,205.149v-85.562H241v85.562H36.93z M82.739,362.579h36.806
			c5.522,0,10-4.477,10-10s-4.478-10-10-10H82.739v-117.43H241V482H82.739V362.579z M419.26,342.579H289c-5.522,0-10,4.477-10,10
			s4.478,10,10,10H419.26V482H261V225.149H419.26V342.579z M465.07,119.587v85.562H261v-85.562
			C261,119.587,465.07,119.587,465.07,119.587z"/>
		<path d="M211,342.579h-43c-5.522,0-10,4.477-10,10s4.478,10,10,10h43c5.522,0,10-4.477,10-10S216.522,342.579,211,342.579z"/>
	</g>
</g>
</svg>